<svg width="42" height="42" viewBox="0 0 42 42" fill="none" xmlns="http://www.w3.org/2000/svg">
<path d="M10 32L19.4582 29.6691M10 32L12.3315 22.5417M10 32H10.0755M19.4582 29.6691L36.888 12.239M19.4582 29.6691L12.3315 22.5417M36.888 12.239L29.7608 5.11167M36.888 12.239L40.1772 8.94988C40.438 8.68909 40.645 8.37946 40.7862 8.03868C40.9273 7.69789 41 7.33264 41 6.96377C41 6.5949 40.9273 6.22964 40.7862 5.88886C40.645 5.54808 40.438 5.23845 40.1772 4.97765L37.0221 1.82251C36.4954 1.29586 35.7811 1 35.0363 1C34.2915 1 33.5772 1.29586 33.0505 1.82251L29.7608 5.11167M29.7608 5.11167L12.3315 22.5417" stroke="#012B59" stroke-width="1.5" stroke-miterlimit="10" stroke-linecap="round" stroke-linejoin="round"/>
<path d="M20.5 6H5C2.79086 6 1 7.79086 1 10V37C1 39.2091 2.79086 41 5 41H34C36.2091 41 38 39.2091 38 37V21" stroke="#012B59" stroke-width="1.5"/>
</svg>
