<svg width="43" height="42" viewBox="0 0 43 42" fill="none" xmlns="http://www.w3.org/2000/svg">
<path d="M8.375 36.75H20.7913V38.0625H8.375C7.85286 38.0625 7.3521 37.8551 6.98288 37.4859C6.61367 37.1167 6.40625 36.6159 6.40625 36.0938V4.59375C6.40625 4.07161 6.61367 3.57085 6.98288 3.20163C7.3521 2.83242 7.85286 2.625 8.375 2.625H29.375C29.8971 2.625 30.3979 2.83242 30.7671 3.20163C31.1363 3.57085 31.3438 4.07161 31.3438 4.59375V24.2812H30.0312V4.59375C30.0312 4.4197 29.9621 4.25278 29.839 4.12971C29.716 4.00664 29.549 3.9375 29.375 3.9375H8.375C8.20095 3.9375 8.03403 4.00664 7.91096 4.12971C7.78789 4.25278 7.71875 4.4197 7.71875 4.59375V36.0938C7.71875 36.2678 7.78789 36.4347 7.91096 36.5578C8.03403 36.6809 8.20095 36.75 8.375 36.75ZM37.0072 32.9831L35.5438 37.4062C35.4076 37.7913 35.1551 38.1245 34.8212 38.3597C34.4872 38.5948 34.0884 38.7203 33.68 38.7188H27.4062C27.4062 38.8928 27.3371 39.0597 27.214 39.1828C27.091 39.3059 26.924 39.375 26.75 39.375H22.8125C22.6385 39.375 22.4715 39.3059 22.3485 39.1828C22.2254 39.0597 22.1562 38.8928 22.1562 38.7188V29.5312C22.1562 29.3572 22.2254 29.1903 22.3485 29.0672C22.4715 28.9441 22.6385 28.875 22.8125 28.875H26.75C26.924 28.875 27.091 28.9441 27.214 29.0672C27.3371 29.1903 27.4062 29.3572 27.4062 29.5312H28.1544C28.3721 29.5314 28.5843 29.463 28.761 29.3358C28.9377 29.2086 29.0699 29.029 29.1388 28.8225L30.0641 26.04C30.1081 25.9097 30.192 25.7964 30.3038 25.7164C30.4157 25.6363 30.5499 25.5934 30.6875 25.5938H31.1928C31.5389 25.5938 31.88 25.676 32.1881 25.8336C32.4962 25.9912 32.7625 26.2198 32.965 26.5005C33.1674 26.7811 33.3004 27.1059 33.3528 27.448C33.4052 27.79 33.3757 28.1397 33.2666 28.4681L32.9122 29.5312H34.52C34.9353 29.5319 35.3445 29.6311 35.714 29.8207C36.0835 30.0102 36.4028 30.2848 36.6456 30.6217C36.8883 30.9586 37.0477 31.3484 37.1106 31.7589C37.1734 32.1694 37.138 32.589 37.0072 32.9831ZM26.0938 38.0625V30.1875H23.4688V38.0625H26.0938ZM35.5831 31.3884C35.4616 31.22 35.3019 31.0828 35.1171 30.9881C34.9323 30.8934 34.7277 30.844 34.52 30.8438H32C31.8959 30.8433 31.7934 30.818 31.701 30.7701C31.6085 30.7222 31.5288 30.6529 31.4684 30.5681C31.4075 30.484 31.3673 30.3866 31.3514 30.2839C31.3354 30.1812 31.344 30.0762 31.3766 29.9775L32.0328 28.0547C32.0784 27.9225 32.0913 27.7813 32.0705 27.6431C32.0496 27.5048 31.9956 27.3737 31.9131 27.2608C31.8306 27.148 31.7219 27.0568 31.5965 26.9951C31.4711 26.9333 31.3326 26.9028 31.1928 26.9062H31.16L30.3856 29.2359C30.2298 29.7044 29.9304 30.1118 29.5298 30.4004C29.1293 30.6891 28.6481 30.8442 28.1544 30.8438H27.4062V37.4062H33.68C33.8176 37.4066 33.9518 37.3637 34.0637 37.2836C34.1755 37.2036 34.2594 37.0903 34.3034 36.96L35.7603 32.5697C35.8263 32.3728 35.8447 32.1631 35.8139 31.9577C35.7831 31.7524 35.704 31.5573 35.5831 31.3884ZM16.9062 19.0312C16.9062 19.2053 16.8371 19.3722 16.714 19.4953C16.591 19.6184 16.424 19.6875 16.25 19.6875H11C10.826 19.6875 10.659 19.6184 10.536 19.4953C10.4129 19.3722 10.3438 19.2053 10.3438 19.0312V15.0938C10.3438 14.9197 10.4129 14.7528 10.536 14.6297C10.659 14.5066 10.826 14.4375 11 14.4375H16.25C16.424 14.4375 16.591 14.5066 16.714 14.6297C16.8371 14.7528 16.9062 14.9197 16.9062 15.0938V19.0312ZM15.5938 15.75H11.6562V18.375H15.5938V15.75ZM19.5312 18.375V19.6875H22.8125V18.375H19.5312ZM27.4062 14.4375H19.5312V15.75H27.4062V14.4375ZM16.9062 22.9688V26.9062C16.9062 27.0803 16.8371 27.2472 16.714 27.3703C16.591 27.4934 16.424 27.5625 16.25 27.5625H11C10.826 27.5625 10.659 27.4934 10.536 27.3703C10.4129 27.2472 10.3438 27.0803 10.3438 26.9062V22.9688C10.3438 22.7947 10.4129 22.6278 10.536 22.5047C10.659 22.3816 10.826 22.3125 11 22.3125H16.25C16.424 22.3125 16.591 22.3816 16.714 22.5047C16.8371 22.6278 16.9062 22.7947 16.9062 22.9688ZM15.5938 23.625H11.6562V26.25H15.5938V23.625ZM19.5312 27.5625H22.8125V26.25H19.5312V27.5625ZM27.4062 22.3125H19.5312V23.625H27.4062V22.3125ZM16.9062 11.1562C16.9062 11.3303 16.8371 11.4972 16.714 11.6203C16.591 11.7434 16.424 11.8125 16.25 11.8125H11C10.826 11.8125 10.659 11.7434 10.536 11.6203C10.4129 11.4972 10.3438 11.3303 10.3438 11.1562V7.21875C10.3438 7.0447 10.4129 6.87778 10.536 6.75471C10.659 6.63164 10.826 6.5625 11 6.5625H16.25C16.424 6.5625 16.591 6.63164 16.714 6.75471C16.8371 6.87778 16.9062 7.0447 16.9062 7.21875V11.1562ZM15.5938 7.875H11.6562V10.5H15.5938V7.875ZM19.5312 10.5V11.8125H22.8125V10.5H19.5312ZM27.4062 6.5625H19.5312V7.875H27.4062V6.5625Z" fill="#012B59"/>
</svg>
