<svg width="42" height="42" viewBox="0 0 42 42" fill="none" xmlns="http://www.w3.org/2000/svg">
<path d="M20.9996 2.09961C10.5836 2.09961 2.09961 10.5836 2.09961 20.9996C2.09961 31.4156 10.5836 39.8996 20.9996 39.8996C31.4156 39.8996 39.8996 31.4156 39.8996 20.9996C39.8996 10.5836 31.4156 2.09961 20.9996 2.09961ZM20.9996 38.2196C11.5076 38.2196 3.77961 30.4916 3.77961 20.9996C3.77961 11.5076 11.5076 3.77961 20.9996 3.77961C30.4916 3.77961 38.2196 11.5076 38.2196 20.9996C38.2196 30.4916 30.4916 38.2196 20.9996 38.2196ZM20.9996 9.23961C19.3616 9.23961 18.0596 10.5416 18.0596 12.1796C18.0596 13.8176 19.3616 15.1196 20.9996 15.1196C22.6376 15.1196 23.9396 13.8176 23.9396 12.1796C23.9396 10.5416 22.6376 9.23961 20.9996 9.23961ZM20.9996 13.4396C20.2856 13.4396 19.7396 12.8936 19.7396 12.1796C19.7396 11.4656 20.2856 10.9196 20.9996 10.9196C21.7136 10.9196 22.2596 11.4656 22.2596 12.1796C22.2596 12.8936 21.7136 13.4396 20.9996 13.4396ZM23.0996 17.6396H18.8996C18.4376 17.6396 18.0596 18.0176 18.0596 18.4796V31.9196C18.0596 32.3816 18.4376 32.7596 18.8996 32.7596H23.0996C23.5616 32.7596 23.9396 32.3816 23.9396 31.9196V18.4796C23.9396 18.0176 23.5616 17.6396 23.0996 17.6396ZM22.2596 31.0796H19.7396V19.3196H22.2596V31.0796Z" fill="#012B59"/>
</svg>
