<svg width="43" height="42" viewBox="0 0 43 42" fill="none" xmlns="http://www.w3.org/2000/svg">
<path d="M35.0137 38.7406C34.7459 38.7401 34.4817 38.6786 34.2412 38.5607L31.127 37.0474C28.3473 38.0616 25.3109 38.1322 22.487 37.2481C19.6631 36.364 17.209 34.5746 15.5039 32.1563C14.8572 31.2246 14.3364 30.2115 13.9551 29.1433C13.8772 28.9247 13.8893 28.6842 13.9887 28.4745C14.0881 28.2648 14.2668 28.1032 14.4854 28.0252C14.7039 27.9473 14.9445 27.9593 15.1542 28.0588C15.3639 28.1582 15.5255 28.3369 15.6035 28.5554C15.9329 29.4785 16.383 30.354 16.942 31.1591C18.0648 32.7641 19.5753 34.059 21.333 34.9235C23.0907 35.788 25.0384 36.194 26.9951 36.1036C28.2053 36.053 29.4005 35.8164 30.5387 35.4021C30.7592 35.3222 30.9936 35.2878 31.2277 35.3008C31.4619 35.3139 31.691 35.3742 31.9012 35.4781L35.0068 36.9871L34.3929 34.2771C34.3275 33.9896 34.3363 33.6902 34.4184 33.407C34.5006 33.1238 34.6534 32.8662 34.8624 32.6583C35.9473 31.5865 36.797 30.3004 37.3572 28.882C37.9175 27.4636 38.176 25.944 38.1163 24.4202C38.034 22.5072 37.4592 20.6479 36.4476 19.0221C35.436 17.3964 34.0219 16.0594 32.3421 15.1403C32.2418 15.0842 32.1536 15.0089 32.0825 14.9187C32.0113 14.8285 31.9586 14.7252 31.9274 14.6146C31.8962 14.504 31.887 14.3884 31.9005 14.2743C31.914 14.1602 31.9498 14.0499 32.0059 13.9496C32.062 13.8493 32.1373 13.7611 32.2275 13.69C32.3177 13.6188 32.421 13.5661 32.5316 13.5349C32.6422 13.5037 32.7578 13.4945 32.8719 13.508C32.986 13.5215 33.0963 13.5573 33.1966 13.6134C35.1385 14.6777 36.7727 16.2255 37.9409 18.1067C39.1092 19.9879 39.772 22.1389 39.8651 24.3514C39.9352 26.1161 39.6368 27.8761 38.9889 29.5191C38.3409 31.1621 37.3577 32.6521 36.1019 33.8939L36.7197 36.5988C36.7774 36.8552 36.7768 37.1212 36.718 37.3773C36.6592 37.6334 36.5437 37.873 36.38 38.0786C36.2163 38.2841 36.0085 38.4503 35.7721 38.5649C35.5356 38.6794 35.2764 38.7395 35.0137 38.7406Z" fill="#012B59"/>
<path d="M8.65314 31.2467C8.3961 31.2456 8.14244 31.1882 7.91006 31.0783C7.67768 30.9684 7.47227 30.8089 7.30833 30.6109C7.14438 30.4129 7.02592 30.1814 6.96129 29.9326C6.89667 29.6838 6.88746 29.4239 6.93433 29.1711L7.4983 26.1659C6.11993 24.9146 5.01874 23.3886 4.26555 21.6861C3.51236 19.9836 3.12385 18.1424 3.125 16.2807C3.1768 12.6137 4.68077 9.11684 7.30708 6.55709C9.9334 3.99733 13.4677 2.5836 17.1348 2.62592C20.802 2.5836 24.3363 3.99733 26.9626 6.55709C29.5889 9.11684 31.0929 12.6137 31.1447 16.2807C31.0928 19.9477 29.5888 23.4444 26.9625 26.0041C24.3362 28.5638 20.8019 29.9774 17.1348 29.9351C15.6639 29.933 14.2022 29.7031 12.8017 29.2536L9.48457 31.0352C9.22922 31.1735 8.94352 31.2462 8.65314 31.2467ZM17.1348 4.37592C13.9317 4.33323 10.8423 5.56247 8.5441 7.79412C6.2459 10.0258 4.92643 13.0777 4.875 16.2807C4.87524 17.9002 5.21371 19.5018 5.86872 20.983C6.52373 22.4641 7.48084 23.7922 8.67878 24.882C8.89804 25.0818 9.06269 25.3342 9.15712 25.6154C9.25155 25.8966 9.27264 26.1973 9.21839 26.4889L8.65442 29.4941L11.9741 27.7083C12.1807 27.5971 12.4077 27.5289 12.6414 27.508C12.8751 27.4871 13.1106 27.5138 13.3336 27.5865C14.5622 27.9812 15.8444 28.1831 17.1348 28.1851C20.3379 28.2279 23.4273 26.9987 25.7255 24.7671C28.0237 22.5356 29.3432 19.4837 29.3947 16.2807C29.3432 13.0777 28.0238 10.0258 25.7256 7.79411C23.4273 5.56247 20.338 4.33323 17.1348 4.37592Z" fill="#012B59"/>
</svg>
