<svg width="42" height="42" viewBox="0 0 42 42" fill="none" xmlns="http://www.w3.org/2000/svg">
<path d="M21.6562 11.8129V11.1566C22.9031 11.091 24.0844 10.566 24.9375 9.64727L25.9875 8.46602L24.4125 8.53164H24.15C22.3125 8.53164 20.8687 7.08789 20.8687 5.25039C20.8687 4.46289 21.1312 3.67539 21.7219 3.08477L22.8375 1.83789L21.1313 1.96914C18.7688 2.16602 16.9312 4.20039 16.9312 6.56289C16.9312 8.72852 18.375 10.5004 20.3438 11.0254V11.8129C10.1719 12.141 1.96875 20.541 1.96875 30.8441V40.0316H40.0312V30.8441C40.0312 20.541 31.8281 12.141 21.6562 11.8129ZM18.2437 6.56289C18.2437 5.38164 18.8344 4.33164 19.8188 3.80664C19.6875 4.26602 19.5562 4.79102 19.5562 5.25039C19.5562 7.28477 20.8687 8.99102 22.7062 9.64727C22.3125 9.77852 21.9187 9.84414 21.525 9.84414C19.6875 9.84414 18.2437 8.33477 18.2437 6.56289ZM38.7188 38.7191H3.28125V34.7816H4.59375V36.7504H5.90625V34.7816H7.21875V36.7504H8.53125V34.7816H9.84375V36.7504H11.1562V34.7816H12.4688V36.7504H13.7812V34.7816H15.0938V36.7504H16.4062V34.7816H17.7188V36.7504H19.0312V34.7816H20.3438V36.7504H21.6562V34.7816H22.9688V36.7504H24.2812V34.7816H25.5938V36.7504H26.9062V34.7816H28.2188V36.7504H29.5312V34.7816H30.8438V36.7504H32.1562V34.7816H33.4688V36.7504H34.7812V34.7816H36.0938V36.7504H37.4062V34.7816H38.7188V38.7191ZM3.28125 33.4691V30.8441C3.28125 21.066 11.2219 13.1254 21 13.1254C30.7781 13.1254 38.7188 21.066 38.7188 30.8441V33.4691H3.28125Z" fill="#012B59"/>
<path d="M5.90625 28.2188H7.21875C7.21875 21.7219 13.3875 16.4062 21 16.4062V15.0938C12.6656 15.0938 5.90625 21 5.90625 28.2188Z" fill="#012B59"/>
</svg>
